<svg width="457" height="52" viewBox="0 0 457 52" fill="none" xmlns="http://www.w3.org/2000/svg">
<path d="M2.32 2.06V10.88C2.32 12.12 2.62 13.04 3.22 13.64C3.83333 14.24 4.68 14.54 5.76 14.54C6.82667 14.54 7.66 14.24 8.26 13.64C8.87333 13.04 9.18 12.12 9.18 10.88V2.06H11V10.86C11 12.02 10.7667 13 10.3 13.8C9.83333 14.5867 9.2 15.1733 8.4 15.56C7.61333 15.9467 6.72667 16.14 5.74 16.14C4.75333 16.14 3.86 15.9467 3.06 15.56C2.27333 15.1733 1.64667 14.5867 1.18 13.8C0.726667 13 0.5 12.02 0.5 10.86V2.06H2.32ZM27.2161 4.84C28.0694 4.84 28.8294 5.02 29.4961 5.38C30.1628 5.72667 30.6894 6.25333 31.0761 6.96C31.4628 7.66667 31.6561 8.52667 31.6561 9.54V16H29.8561V9.8C29.8561 8.70667 29.5828 7.87333 29.0361 7.3C28.5028 6.71333 27.7761 6.42 26.8561 6.42C25.9094 6.42 25.1561 6.72667 24.5961 7.34C24.0361 7.94 23.7561 8.81333 23.7561 9.96V16H21.9561V9.8C21.9561 8.70667 21.6828 7.87333 21.1361 7.3C20.6028 6.71333 19.8761 6.42 18.9561 6.42C18.0094 6.42 17.2561 6.72667 16.6961 7.34C16.1361 7.94 15.8561 8.81333 15.8561 9.96V16H14.0361V5.04H15.8561V6.62C16.2161 6.04667 16.6961 5.60667 17.2961 5.3C17.9094 4.99333 18.5828 4.84 19.3161 4.84C20.2361 4.84 21.0494 5.04667 21.7561 5.46C22.4628 5.87333 22.9894 6.48 23.3361 7.28C23.6428 6.50667 24.1494 5.90667 24.8561 5.48C25.5628 5.05333 26.3494 4.84 27.2161 4.84ZM43.8536 16.18C43.0136 16.18 42.2603 16.04 41.5936 15.76C40.9269 15.4667 40.4003 15.0667 40.0136 14.56C39.6269 14.04 39.4136 13.4467 39.3736 12.78H41.2536C41.3069 13.3267 41.5603 13.7733 42.0136 14.12C42.4803 14.4667 43.0869 14.64 43.8336 14.64C44.5269 14.64 45.0736 14.4867 45.4736 14.18C45.8736 13.8733 46.0736 13.4867 46.0736 13.02C46.0736 12.54 45.8603 12.1867 45.4336 11.96C45.0069 11.72 44.3469 11.4867 43.4536 11.26C42.6403 11.0467 41.9736 10.8333 41.4536 10.62C40.9469 10.3933 40.5069 10.0667 40.1336 9.64C39.7736 9.2 39.5936 8.62667 39.5936 7.92C39.5936 7.36 39.7603 6.84667 40.0936 6.38C40.4269 5.91333 40.9003 5.54667 41.5136 5.28C42.1269 5 42.8269 4.86 43.6136 4.86C44.8269 4.86 45.8069 5.16667 46.5536 5.78C47.3003 6.39333 47.7003 7.23333 47.7536 8.3H45.9336C45.8936 7.72667 45.6603 7.26667 45.2336 6.92C44.8203 6.57333 44.2603 6.4 43.5536 6.4C42.9003 6.4 42.3803 6.54 41.9936 6.82C41.6069 7.1 41.4136 7.46667 41.4136 7.92C41.4136 8.28 41.5269 8.58 41.7536 8.82C41.9936 9.04667 42.2869 9.23333 42.6336 9.38C42.9936 9.51333 43.4869 9.66667 44.1136 9.84C44.9003 10.0533 45.5403 10.2667 46.0336 10.48C46.5269 10.68 46.9469 10.9867 47.2936 11.4C47.6536 11.8133 47.8403 12.3533 47.8536 13.02C47.8536 13.62 47.6869 14.16 47.3536 14.64C47.0203 15.12 46.5469 15.5 45.9336 15.78C45.3336 16.0467 44.6403 16.18 43.8536 16.18ZM55.2028 16.18C54.1761 16.18 53.2428 15.9467 52.4028 15.48C51.5761 15.0133 50.9228 14.3533 50.4428 13.5C49.9761 12.6333 49.7428 11.6333 49.7428 10.5C49.7428 9.38 49.9828 8.39333 50.4628 7.54C50.9561 6.67333 51.6228 6.01333 52.4628 5.56C53.3028 5.09333 54.2428 4.86 55.2828 4.86C56.3228 4.86 57.2628 5.09333 58.1028 5.56C58.9428 6.01333 59.6028 6.66667 60.0828 7.52C60.5761 8.37333 60.8228 9.36667 60.8228 10.5C60.8228 11.6333 60.5695 12.6333 60.0628 13.5C59.5695 14.3533 58.8961 15.0133 58.0428 15.48C57.1895 15.9467 56.2428 16.18 55.2028 16.18ZM55.2028 14.58C55.8561 14.58 56.4695 14.4267 57.0428 14.12C57.6161 13.8133 58.0761 13.3533 58.4228 12.74C58.7828 12.1267 58.9628 11.38 58.9628 10.5C58.9628 9.62 58.7895 8.87333 58.4428 8.26C58.0961 7.64667 57.6428 7.19333 57.0828 6.9C56.5228 6.59333 55.9161 6.44 55.2628 6.44C54.5961 6.44 53.9828 6.59333 53.4228 6.9C52.8761 7.19333 52.4361 7.64667 52.1028 8.26C51.7695 8.87333 51.6028 9.62 51.6028 10.5C51.6028 11.3933 51.7628 12.1467 52.0828 12.76C52.4161 13.3733 52.8561 13.8333 53.4028 14.14C53.9495 14.4333 54.5495 14.58 55.2028 14.58ZM67.6758 6.54H65.3758V16H63.5558V6.54H62.1358V5.04H63.5558V4.26C63.5558 3.03333 63.8691 2.14 64.4958 1.58C65.1358 1.00667 66.1558 0.719999 67.5558 0.719999V2.24C66.7558 2.24 66.1891 2.4 65.8558 2.72C65.5358 3.02667 65.3758 3.54 65.3758 4.26V5.04H67.6758V6.54ZM72.0178 6.54V13C72.0178 13.5333 72.1311 13.9133 72.3578 14.14C72.5845 14.3533 72.9778 14.46 73.5378 14.46H74.8778V16H73.2378C72.2245 16 71.4645 15.7667 70.9578 15.3C70.4511 14.8333 70.1978 14.0667 70.1978 13V6.54H68.7778V5.04H70.1978V2.28H72.0178V5.04H74.8778V6.54H72.0178ZM91.683 5.04L88.263 16H86.383L83.743 7.3L81.103 16H79.223L75.783 5.04H77.643L80.163 14.24L82.883 5.04H84.743L87.403 14.26L89.883 5.04H91.683ZM92.8092 10.48C92.8092 9.36 93.0359 8.38 93.4892 7.54C93.9426 6.68667 94.5626 6.02667 95.3492 5.56C96.1492 5.09333 97.0359 4.86 98.0092 4.86C98.9692 4.86 99.8026 5.06667 100.509 5.48C101.216 5.89333 101.743 6.41333 102.089 7.04V5.04H103.929V16H102.089V13.96C101.729 14.6 101.189 15.1333 100.469 15.56C99.7626 15.9733 98.9359 16.18 97.9892 16.18C97.0159 16.18 96.1359 15.94 95.3492 15.46C94.5626 14.98 93.9426 14.3067 93.4892 13.44C93.0359 12.5733 92.8092 11.5867 92.8092 10.48ZM102.089 10.5C102.089 9.67333 101.923 8.95333 101.589 8.34C101.256 7.72667 100.803 7.26 100.229 6.94C99.6692 6.60667 99.0492 6.44 98.3692 6.44C97.6892 6.44 97.0692 6.6 96.5092 6.92C95.9492 7.24 95.5026 7.70667 95.1692 8.32C94.8359 8.93333 94.6692 9.65333 94.6692 10.48C94.6692 11.32 94.8359 12.0533 95.1692 12.68C95.5026 13.2933 95.9492 13.7667 96.5092 14.1C97.0692 14.42 97.6892 14.58 98.3692 14.58C99.0492 14.58 99.6692 14.42 100.229 14.1C100.803 13.7667 101.256 13.2933 101.589 12.68C101.923 12.0533 102.089 11.3267 102.089 10.5ZM108.825 6.82C109.145 6.19333 109.598 5.70667 110.185 5.36C110.785 5.01333 111.512 4.84 112.365 4.84V6.72H111.885C109.845 6.72 108.825 7.82667 108.825 10.04V16H107.005V5.04H108.825V6.82ZM124.466 10.1C124.466 10.4467 124.446 10.8133 124.406 11.2H115.646C115.712 12.28 116.079 13.1267 116.746 13.74C117.426 14.34 118.246 14.64 119.206 14.64C119.992 14.64 120.646 14.46 121.166 14.1C121.699 13.7267 122.072 13.2333 122.286 12.62H124.246C123.952 13.6733 123.366 14.5333 122.486 15.2C121.606 15.8533 120.512 16.18 119.206 16.18C118.166 16.18 117.232 15.9467 116.406 15.48C115.592 15.0133 114.952 14.3533 114.486 13.5C114.019 12.6333 113.786 11.6333 113.786 10.5C113.786 9.36667 114.012 8.37333 114.466 7.52C114.919 6.66667 115.552 6.01333 116.366 5.56C117.192 5.09333 118.139 4.86 119.206 4.86C120.246 4.86 121.166 5.08667 121.966 5.54C122.766 5.99333 123.379 6.62 123.806 7.42C124.246 8.20667 124.466 9.1 124.466 10.1ZM122.586 9.72C122.586 9.02667 122.432 8.43333 122.126 7.94C121.819 7.43333 121.399 7.05333 120.866 6.8C120.346 6.53333 119.766 6.4 119.126 6.4C118.206 6.4 117.419 6.69333 116.766 7.28C116.126 7.86667 115.759 8.68 115.666 9.72H122.586ZM131.52 10.48C131.52 9.36 131.747 8.38 132.2 7.54C132.653 6.68667 133.273 6.02667 134.06 5.56C134.86 5.09333 135.753 4.86 136.74 4.86C137.593 4.86 138.387 5.06 139.12 5.46C139.853 5.84667 140.413 6.36 140.8 7V1.2H142.64V16H140.8V13.94C140.44 14.5933 139.907 15.1333 139.2 15.56C138.493 15.9733 137.667 16.18 136.72 16.18C135.747 16.18 134.86 15.94 134.06 15.46C133.273 14.98 132.653 14.3067 132.2 13.44C131.747 12.5733 131.52 11.5867 131.52 10.48ZM140.8 10.5C140.8 9.67333 140.633 8.95333 140.3 8.34C139.967 7.72667 139.513 7.26 138.94 6.94C138.38 6.60667 137.76 6.44 137.08 6.44C136.4 6.44 135.78 6.6 135.22 6.92C134.66 7.24 134.213 7.70667 133.88 8.32C133.547 8.93333 133.38 9.65333 133.38 10.48C133.38 11.32 133.547 12.0533 133.88 12.68C134.213 13.2933 134.66 13.7667 135.22 14.1C135.78 14.42 136.4 14.58 137.08 14.58C137.76 14.58 138.38 14.42 138.94 14.1C139.513 13.7667 139.967 13.2933 140.3 12.68C140.633 12.0533 140.8 11.3267 140.8 10.5ZM155.716 10.1C155.716 10.4467 155.696 10.8133 155.656 11.2H146.896C146.962 12.28 147.329 13.1267 147.996 13.74C148.676 14.34 149.496 14.64 150.456 14.64C151.242 14.64 151.896 14.46 152.416 14.1C152.949 13.7267 153.322 13.2333 153.536 12.62H155.496C155.202 13.6733 154.616 14.5333 153.736 15.2C152.856 15.8533 151.762 16.18 150.456 16.18C149.416 16.18 148.482 15.9467 147.656 15.48C146.842 15.0133 146.202 14.3533 145.736 13.5C145.269 12.6333 145.036 11.6333 145.036 10.5C145.036 9.36667 145.262 8.37333 145.716 7.52C146.169 6.66667 146.802 6.01333 147.616 5.56C148.442 5.09333 149.389 4.86 150.456 4.86C151.496 4.86 152.416 5.08667 153.216 5.54C154.016 5.99333 154.629 6.62 155.056 7.42C155.496 8.20667 155.716 9.1 155.716 10.1ZM153.836 9.72C153.836 9.02667 153.682 8.43333 153.376 7.94C153.069 7.43333 152.649 7.05333 152.116 6.8C151.596 6.53333 151.016 6.4 150.376 6.4C149.456 6.4 148.669 6.69333 148.016 7.28C147.376 7.86667 147.009 8.68 146.916 9.72H153.836ZM161.998 16.18C161.158 16.18 160.405 16.04 159.738 15.76C159.071 15.4667 158.545 15.0667 158.158 14.56C157.771 14.04 157.558 13.4467 157.518 12.78H159.398C159.451 13.3267 159.705 13.7733 160.158 14.12C160.625 14.4667 161.231 14.64 161.978 14.64C162.671 14.64 163.218 14.4867 163.618 14.18C164.018 13.8733 164.218 13.4867 164.218 13.02C164.218 12.54 164.005 12.1867 163.578 11.96C163.151 11.72 162.491 11.4867 161.598 11.26C160.785 11.0467 160.118 10.8333 159.598 10.62C159.091 10.3933 158.651 10.0667 158.278 9.64C157.918 9.2 157.738 8.62667 157.738 7.92C157.738 7.36 157.905 6.84667 158.238 6.38C158.571 5.91333 159.045 5.54667 159.658 5.28C160.271 5 160.971 4.86 161.758 4.86C162.971 4.86 163.951 5.16667 164.698 5.78C165.445 6.39333 165.845 7.23333 165.898 8.3H164.078C164.038 7.72667 163.805 7.26667 163.378 6.92C162.965 6.57333 162.405 6.4 161.698 6.4C161.045 6.4 160.525 6.54 160.138 6.82C159.751 7.1 159.558 7.46667 159.558 7.92C159.558 8.28 159.671 8.58 159.898 8.82C160.138 9.04667 160.431 9.23333 160.778 9.38C161.138 9.51333 161.631 9.66667 162.258 9.84C163.045 10.0533 163.685 10.2667 164.178 10.48C164.671 10.68 165.091 10.9867 165.438 11.4C165.798 11.8133 165.985 12.3533 165.998 13.02C165.998 13.62 165.831 14.16 165.498 14.64C165.165 15.12 164.691 15.5 164.078 15.78C163.478 16.0467 162.785 16.18 161.998 16.18ZM178.567 10.1C178.567 10.4467 178.547 10.8133 178.507 11.2H169.747C169.814 12.28 170.181 13.1267 170.847 13.74C171.527 14.34 172.347 14.64 173.307 14.64C174.094 14.64 174.747 14.46 175.267 14.1C175.801 13.7267 176.174 13.2333 176.387 12.62H178.347C178.054 13.6733 177.467 14.5333 176.587 15.2C175.707 15.8533 174.614 16.18 173.307 16.18C172.267 16.18 171.334 15.9467 170.507 15.48C169.694 15.0133 169.054 14.3533 168.587 13.5C168.121 12.6333 167.887 11.6333 167.887 10.5C167.887 9.36667 168.114 8.37333 168.567 7.52C169.021 6.66667 169.654 6.01333 170.467 5.56C171.294 5.09333 172.241 4.86 173.307 4.86C174.347 4.86 175.267 5.08667 176.067 5.54C176.867 5.99333 177.481 6.62 177.907 7.42C178.347 8.20667 178.567 9.1 178.567 10.1ZM176.687 9.72C176.687 9.02667 176.534 8.43333 176.227 7.94C175.921 7.43333 175.501 7.05333 174.967 6.8C174.447 6.53333 173.867 6.4 173.227 6.4C172.307 6.4 171.521 6.69333 170.867 7.28C170.227 7.86667 169.861 8.68 169.767 9.72H176.687ZM186.31 4.84C187.643 4.84 188.723 5.24667 189.55 6.06C190.376 6.86 190.79 8.02 190.79 9.54V16H188.99V9.8C188.99 8.70667 188.716 7.87333 188.17 7.3C187.623 6.71333 186.876 6.42 185.93 6.42C184.97 6.42 184.203 6.72 183.63 7.32C183.07 7.92 182.79 8.79333 182.79 9.94V16H180.97V5.04H182.79V6.6C183.15 6.04 183.636 5.60667 184.25 5.3C184.876 4.99333 185.563 4.84 186.31 4.84ZM197.843 14.32L201.243 5.04H203.183L198.883 16H196.763L192.463 5.04H194.423L197.843 14.32ZM209.754 16.18C208.727 16.18 207.794 15.9467 206.954 15.48C206.127 15.0133 205.474 14.3533 204.994 13.5C204.527 12.6333 204.294 11.6333 204.294 10.5C204.294 9.38 204.534 8.39333 205.014 7.54C205.507 6.67333 206.174 6.01333 207.014 5.56C207.854 5.09333 208.794 4.86 209.834 4.86C210.874 4.86 211.814 5.09333 212.654 5.56C213.494 6.01333 214.154 6.66667 214.634 7.52C215.127 8.37333 215.374 9.36667 215.374 10.5C215.374 11.6333 215.12 12.6333 214.614 13.5C214.12 14.3533 213.447 15.0133 212.594 15.48C211.74 15.9467 210.794 16.18 209.754 16.18ZM209.754 14.58C210.407 14.58 211.02 14.4267 211.594 14.12C212.167 13.8133 212.627 13.3533 212.974 12.74C213.334 12.1267 213.514 11.38 213.514 10.5C213.514 9.62 213.34 8.87333 212.994 8.26C212.647 7.64667 212.194 7.19333 211.634 6.9C211.074 6.59333 210.467 6.44 209.814 6.44C209.147 6.44 208.534 6.59333 207.974 6.9C207.427 7.19333 206.987 7.64667 206.654 8.26C206.32 8.87333 206.154 9.62 206.154 10.5C206.154 11.3933 206.314 12.1467 206.634 12.76C206.967 13.3733 207.407 13.8333 207.954 14.14C208.5 14.4333 209.1 14.58 209.754 14.58ZM219.587 1.2V16H217.767V1.2H219.587ZM226.768 14.32L230.168 5.04H232.108L227.808 16H225.688L221.388 5.04H223.348L226.768 14.32ZM234.839 3.26C234.493 3.26 234.199 3.14 233.959 2.9C233.719 2.66 233.599 2.36667 233.599 2.02C233.599 1.67333 233.719 1.38 233.959 1.14C234.199 0.899999 234.493 0.779999 234.839 0.779999C235.173 0.779999 235.453 0.899999 235.679 1.14C235.919 1.38 236.039 1.67333 236.039 2.02C236.039 2.36667 235.919 2.66 235.679 2.9C235.453 3.14 235.173 3.26 234.839 3.26ZM235.719 5.04V16H233.899V5.04H235.719ZM238.141 10.48C238.141 9.36 238.368 8.38 238.821 7.54C239.275 6.68667 239.895 6.02667 240.681 5.56C241.481 5.09333 242.375 4.86 243.361 4.86C244.215 4.86 245.008 5.06 245.741 5.46C246.475 5.84667 247.035 6.36 247.421 7V1.2H249.261V16H247.421V13.94C247.061 14.5933 246.528 15.1333 245.821 15.56C245.115 15.9733 244.288 16.18 243.341 16.18C242.368 16.18 241.481 15.94 240.681 15.46C239.895 14.98 239.275 14.3067 238.821 13.44C238.368 12.5733 238.141 11.5867 238.141 10.48ZM247.421 10.5C247.421 9.67333 247.255 8.95333 246.921 8.34C246.588 7.72667 246.135 7.26 245.561 6.94C245.001 6.60667 244.381 6.44 243.701 6.44C243.021 6.44 242.401 6.6 241.841 6.92C241.281 7.24 240.835 7.70667 240.501 8.32C240.168 8.93333 240.001 9.65333 240.001 10.48C240.001 11.32 240.168 12.0533 240.501 12.68C240.835 13.2933 241.281 13.7667 241.841 14.1C242.401 14.42 243.021 14.58 243.701 14.58C244.381 14.58 245.001 14.42 245.561 14.1C246.135 13.7667 246.588 13.2933 246.921 12.68C247.255 12.0533 247.421 11.3267 247.421 10.5ZM257.117 16.18C256.09 16.18 255.157 15.9467 254.317 15.48C253.49 15.0133 252.837 14.3533 252.357 13.5C251.89 12.6333 251.657 11.6333 251.657 10.5C251.657 9.38 251.897 8.39333 252.377 7.54C252.87 6.67333 253.537 6.01333 254.377 5.56C255.217 5.09333 256.157 4.86 257.197 4.86C258.237 4.86 259.177 5.09333 260.017 5.56C260.857 6.01333 261.517 6.66667 261.997 7.52C262.49 8.37333 262.737 9.36667 262.737 10.5C262.737 11.6333 262.484 12.6333 261.977 13.5C261.484 14.3533 260.81 15.0133 259.957 15.48C259.104 15.9467 258.157 16.18 257.117 16.18ZM257.117 14.58C257.77 14.58 258.384 14.4267 258.957 14.12C259.53 13.8133 259.99 13.3533 260.337 12.74C260.697 12.1267 260.877 11.38 260.877 10.5C260.877 9.62 260.704 8.87333 260.357 8.26C260.01 7.64667 259.557 7.19333 258.997 6.9C258.437 6.59333 257.83 6.44 257.177 6.44C256.51 6.44 255.897 6.59333 255.337 6.9C254.79 7.19333 254.35 7.64667 254.017 8.26C253.684 8.87333 253.517 9.62 253.517 10.5C253.517 11.3933 253.677 12.1467 253.997 12.76C254.33 13.3733 254.77 13.8333 255.317 14.14C255.864 14.4333 256.464 14.58 257.117 14.58ZM272.282 7.06C272.642 6.43333 273.175 5.91333 273.882 5.5C274.602 5.07333 275.435 4.86 276.382 4.86C277.355 4.86 278.235 5.09333 279.022 5.56C279.822 6.02667 280.449 6.68667 280.902 7.54C281.355 8.38 281.582 9.36 281.582 10.48C281.582 11.5867 281.355 12.5733 280.902 13.44C280.449 14.3067 279.822 14.98 279.022 15.46C278.235 15.94 277.355 16.18 276.382 16.18C275.449 16.18 274.622 15.9733 273.902 15.56C273.195 15.1333 272.655 14.6067 272.282 13.98V21.2H270.462V5.04H272.282V7.06ZM279.722 10.48C279.722 9.65333 279.555 8.93333 279.222 8.32C278.889 7.70667 278.435 7.24 277.862 6.92C277.302 6.6 276.682 6.44 276.002 6.44C275.335 6.44 274.715 6.60667 274.142 6.94C273.582 7.26 273.129 7.73333 272.782 8.36C272.449 8.97333 272.282 9.68667 272.282 10.5C272.282 11.3267 272.449 12.0533 272.782 12.68C273.129 13.2933 273.582 13.7667 274.142 14.1C274.715 14.42 275.335 14.58 276.002 14.58C276.682 14.58 277.302 14.42 277.862 14.1C278.435 13.7667 278.889 13.2933 279.222 12.68C279.555 12.0533 279.722 11.32 279.722 10.48ZM293.978 10.1C293.978 10.4467 293.958 10.8133 293.918 11.2H285.158C285.224 12.28 285.591 13.1267 286.258 13.74C286.938 14.34 287.758 14.64 288.718 14.64C289.504 14.64 290.158 14.46 290.678 14.1C291.211 13.7267 291.584 13.2333 291.798 12.62H293.758C293.464 13.6733 292.878 14.5333 291.998 15.2C291.118 15.8533 290.024 16.18 288.718 16.18C287.678 16.18 286.744 15.9467 285.918 15.48C285.104 15.0133 284.464 14.3533 283.998 13.5C283.531 12.6333 283.298 11.6333 283.298 10.5C283.298 9.36667 283.524 8.37333 283.978 7.52C284.431 6.66667 285.064 6.01333 285.878 5.56C286.704 5.09333 287.651 4.86 288.718 4.86C289.758 4.86 290.678 5.08667 291.478 5.54C292.278 5.99333 292.891 6.62 293.318 7.42C293.758 8.20667 293.978 9.1 293.978 10.1ZM292.098 9.72C292.098 9.02667 291.944 8.43333 291.638 7.94C291.331 7.43333 290.911 7.05333 290.378 6.8C289.858 6.53333 289.278 6.4 288.638 6.4C287.718 6.4 286.931 6.69333 286.278 7.28C285.638 7.86667 285.271 8.68 285.178 9.72H292.098ZM298.2 1.2V16H296.38V1.2H298.2ZM300.622 10.48C300.622 9.36 300.848 8.38 301.302 7.54C301.755 6.68667 302.375 6.02667 303.162 5.56C303.962 5.09333 304.848 4.86 305.822 4.86C306.782 4.86 307.615 5.06667 308.322 5.48C309.028 5.89333 309.555 6.41333 309.902 7.04V5.04H311.742V16H309.902V13.96C309.542 14.6 309.002 15.1333 308.282 15.56C307.575 15.9733 306.748 16.18 305.802 16.18C304.828 16.18 303.948 15.94 303.162 15.46C302.375 14.98 301.755 14.3067 301.302 13.44C300.848 12.5733 300.622 11.5867 300.622 10.48ZM309.902 10.5C309.902 9.67333 309.735 8.95333 309.402 8.34C309.068 7.72667 308.615 7.26 308.042 6.94C307.482 6.60667 306.862 6.44 306.182 6.44C305.502 6.44 304.882 6.6 304.322 6.92C303.762 7.24 303.315 7.70667 302.982 8.32C302.648 8.93333 302.482 9.65333 302.482 10.48C302.482 11.32 302.648 12.0533 302.982 12.68C303.315 13.2933 303.762 13.7667 304.322 14.1C304.882 14.42 305.502 14.58 306.182 14.58C306.862 14.58 307.482 14.42 308.042 14.1C308.615 13.7667 309.068 13.2933 309.402 12.68C309.735 12.0533 309.902 11.3267 309.902 10.5ZM321.969 2.06V16H320.149V2.06H321.969ZM336.031 16H334.211L326.891 4.9V16H325.071V2.04H326.891L334.211 13.12V2.04H336.031V16ZM338.394 12.78V11.4L345.414 1.68H347.594V11.2H349.594V12.78H347.594V16H345.794V12.78H338.394ZM345.874 3.58L340.494 11.2H345.874V3.58ZM361.504 6.54H359.204V16H357.384V6.54H355.964V5.04H357.384V4.26C357.384 3.03333 357.697 2.14 358.324 1.58C358.964 1.00667 359.984 0.719999 361.384 0.719999V2.24C360.584 2.24 360.017 2.4 359.684 2.72C359.364 3.02667 359.204 3.54 359.204 4.26V5.04H361.504V6.54ZM368.406 16.18C367.379 16.18 366.446 15.9467 365.606 15.48C364.779 15.0133 364.126 14.3533 363.646 13.5C363.179 12.6333 362.946 11.6333 362.946 10.5C362.946 9.38 363.186 8.39333 363.666 7.54C364.159 6.67333 364.826 6.01333 365.666 5.56C366.506 5.09333 367.446 4.86 368.486 4.86C369.526 4.86 370.466 5.09333 371.306 5.56C372.146 6.01333 372.806 6.66667 373.286 7.52C373.779 8.37333 374.026 9.36667 374.026 10.5C374.026 11.6333 373.773 12.6333 373.266 13.5C372.773 14.3533 372.099 15.0133 371.246 15.48C370.393 15.9467 369.446 16.18 368.406 16.18ZM368.406 14.58C369.059 14.58 369.673 14.4267 370.246 14.12C370.819 13.8133 371.279 13.3533 371.626 12.74C371.986 12.1267 372.166 11.38 372.166 10.5C372.166 9.62 371.993 8.87333 371.646 8.26C371.299 7.64667 370.846 7.19333 370.286 6.9C369.726 6.59333 369.119 6.44 368.466 6.44C367.799 6.44 367.186 6.59333 366.626 6.9C366.079 7.19333 365.639 7.64667 365.306 8.26C364.973 8.87333 364.806 9.62 364.806 10.5C364.806 11.3933 364.966 12.1467 365.286 12.76C365.619 13.3733 366.059 13.8333 366.606 14.14C367.153 14.4333 367.753 14.58 368.406 14.58ZM375.739 10.5C375.739 9.36667 375.966 8.38 376.419 7.54C376.872 6.68667 377.499 6.02667 378.299 5.56C379.112 5.09333 380.039 4.86 381.079 4.86C382.426 4.86 383.532 5.18667 384.399 5.84C385.279 6.49333 385.859 7.4 386.139 8.56H384.179C383.992 7.89333 383.626 7.36667 383.079 6.98C382.546 6.59333 381.879 6.4 381.079 6.4C380.039 6.4 379.199 6.76 378.559 7.48C377.919 8.18667 377.599 9.19333 377.599 10.5C377.599 11.82 377.919 12.84 378.559 13.56C379.199 14.28 380.039 14.64 381.079 14.64C381.879 14.64 382.546 14.4533 383.079 14.08C383.612 13.7067 383.979 13.1733 384.179 12.48H386.139C385.846 13.6 385.259 14.5 384.379 15.18C383.499 15.8467 382.399 16.18 381.079 16.18C380.039 16.18 379.112 15.9467 378.299 15.48C377.499 15.0133 376.872 14.3533 376.419 13.5C375.966 12.6467 375.739 11.6467 375.739 10.5ZM387.887 10.48C387.887 9.36 388.114 8.38 388.567 7.54C389.021 6.68667 389.641 6.02667 390.427 5.56C391.227 5.09333 392.114 4.86 393.087 4.86C394.047 4.86 394.881 5.06667 395.587 5.48C396.294 5.89333 396.821 6.41333 397.167 7.04V5.04H399.007V16H397.167V13.96C396.807 14.6 396.267 15.1333 395.547 15.56C394.841 15.9733 394.014 16.18 393.067 16.18C392.094 16.18 391.214 15.94 390.427 15.46C389.641 14.98 389.021 14.3067 388.567 13.44C388.114 12.5733 387.887 11.5867 387.887 10.48ZM397.167 10.5C397.167 9.67333 397.001 8.95333 396.667 8.34C396.334 7.72667 395.881 7.26 395.307 6.94C394.747 6.60667 394.127 6.44 393.447 6.44C392.767 6.44 392.147 6.6 391.587 6.92C391.027 7.24 390.581 7.70667 390.247 8.32C389.914 8.93333 389.747 9.65333 389.747 10.48C389.747 11.32 389.914 12.0533 390.247 12.68C390.581 13.2933 391.027 13.7667 391.587 14.1C392.147 14.42 392.767 14.58 393.447 14.58C394.127 14.58 394.747 14.42 395.307 14.1C395.881 13.7667 396.334 13.2933 396.667 12.68C397.001 12.0533 397.167 11.3267 397.167 10.5ZM401.403 10.48C401.403 9.36 401.63 8.38 402.083 7.54C402.536 6.68667 403.156 6.02667 403.943 5.56C404.743 5.09333 405.636 4.86 406.623 4.86C407.476 4.86 408.27 5.06 409.003 5.46C409.736 5.84667 410.296 6.36 410.683 7V1.2H412.523V16H410.683V13.94C410.323 14.5933 409.79 15.1333 409.083 15.56C408.376 15.9733 407.55 16.18 406.603 16.18C405.63 16.18 404.743 15.94 403.943 15.46C403.156 14.98 402.536 14.3067 402.083 13.44C401.63 12.5733 401.403 11.5867 401.403 10.48ZM410.683 10.5C410.683 9.67333 410.516 8.95333 410.183 8.34C409.85 7.72667 409.396 7.26 408.823 6.94C408.263 6.60667 407.643 6.44 406.963 6.44C406.283 6.44 405.663 6.6 405.103 6.92C404.543 7.24 404.096 7.70667 403.763 8.32C403.43 8.93333 403.263 9.65333 403.263 10.48C403.263 11.32 403.43 12.0533 403.763 12.68C404.096 13.2933 404.543 13.7667 405.103 14.1C405.663 14.42 406.283 14.58 406.963 14.58C407.643 14.58 408.263 14.42 408.823 14.1C409.396 13.7667 409.85 13.2933 410.183 12.68C410.516 12.0533 410.683 11.3267 410.683 10.5ZM420.379 16.18C419.352 16.18 418.419 15.9467 417.579 15.48C416.752 15.0133 416.099 14.3533 415.619 13.5C415.152 12.6333 414.919 11.6333 414.919 10.5C414.919 9.38 415.159 8.39333 415.639 7.54C416.132 6.67333 416.799 6.01333 417.639 5.56C418.479 5.09333 419.419 4.86 420.459 4.86C421.499 4.86 422.439 5.09333 423.279 5.56C424.119 6.01333 424.779 6.66667 425.259 7.52C425.752 8.37333 425.999 9.36667 425.999 10.5C425.999 11.6333 425.745 12.6333 425.239 13.5C424.745 14.3533 424.072 15.0133 423.219 15.48C422.365 15.9467 421.419 16.18 420.379 16.18ZM420.379 14.58C421.032 14.58 421.645 14.4267 422.219 14.12C422.792 13.8133 423.252 13.3533 423.599 12.74C423.959 12.1267 424.139 11.38 424.139 10.5C424.139 9.62 423.965 8.87333 423.619 8.26C423.272 7.64667 422.819 7.19333 422.259 6.9C421.699 6.59333 421.092 6.44 420.439 6.44C419.772 6.44 419.159 6.59333 418.599 6.9C418.052 7.19333 417.612 7.64667 417.279 8.26C416.945 8.87333 416.779 9.62 416.779 10.5C416.779 11.3933 416.939 12.1467 417.259 12.76C417.592 13.3733 418.032 13.8333 418.579 14.14C419.125 14.4333 419.725 14.58 420.379 14.58ZM439.064 4.84C440.397 4.84 441.477 5.24667 442.304 6.06C443.13 6.86 443.544 8.02 443.544 9.54V16H441.744V9.8C441.744 8.70667 441.47 7.87333 440.924 7.3C440.377 6.71333 439.63 6.42 438.684 6.42C437.724 6.42 436.957 6.72 436.384 7.32C435.824 7.92 435.544 8.79333 435.544 9.94V16H433.724V5.04H435.544V6.6C435.904 6.04 436.39 5.60667 437.004 5.3C437.63 4.99333 438.317 4.84 439.064 4.84ZM445.837 10.48C445.837 9.36 446.063 8.38 446.517 7.54C446.97 6.68667 447.59 6.02667 448.377 5.56C449.177 5.09333 450.063 4.86 451.037 4.86C451.997 4.86 452.83 5.06667 453.537 5.48C454.243 5.89333 454.77 6.41333 455.117 7.04V5.04H456.957V16H455.117V13.96C454.757 14.6 454.217 15.1333 453.497 15.56C452.79 15.9733 451.963 16.18 451.017 16.18C450.043 16.18 449.163 15.94 448.377 15.46C447.59 14.98 446.97 14.3067 446.517 13.44C446.063 12.5733 445.837 11.5867 445.837 10.48ZM455.117 10.5C455.117 9.67333 454.95 8.95333 454.617 8.34C454.283 7.72667 453.83 7.26 453.257 6.94C452.697 6.60667 452.077 6.44 451.397 6.44C450.717 6.44 450.097 6.6 449.537 6.92C448.977 7.24 448.53 7.70667 448.197 8.32C447.863 8.93333 447.697 9.65333 447.697 10.48C447.697 11.32 447.863 12.0533 448.197 12.68C448.53 13.2933 448.977 13.7667 449.537 14.1C450.097 14.42 450.717 14.58 451.397 14.58C452.077 14.58 452.697 14.42 453.257 14.1C453.83 13.7667 454.283 13.2933 454.617 12.68C454.95 12.0533 455.117 11.3267 455.117 10.5ZM13.72 34.84C14.5733 34.84 15.3333 35.02 16 35.38C16.6667 35.7267 17.1933 36.2533 17.58 36.96C17.9667 37.6667 18.16 38.5267 18.16 39.54V46H16.36V39.8C16.36 38.7067 16.0867 37.8733 15.54 37.3C15.0067 36.7133 14.28 36.42 13.36 36.42C12.4133 36.42 11.66 36.7267 11.1 37.34C10.54 37.94 10.26 38.8133 10.26 39.96V46H8.46V39.8C8.46 38.7067 8.18667 37.8733 7.64 37.3C7.10667 36.7133 6.38 36.42 5.46 36.42C4.51333 36.42 3.76 36.7267 3.2 37.34C2.64 37.94 2.36 38.8133 2.36 39.96V46H0.54V35.04H2.36V36.62C2.72 36.0467 3.2 35.6067 3.8 35.3C4.41333 34.9933 5.08667 34.84 5.82 34.84C6.74 34.84 7.55333 35.0467 8.26 35.46C8.96667 35.8733 9.49333 36.48 9.84 37.28C10.1467 36.5067 10.6533 35.9067 11.36 35.48C12.0667 35.0533 12.8533 34.84 13.72 34.84ZM31.1455 40.1C31.1455 40.4467 31.1255 40.8133 31.0855 41.2H22.3255C22.3921 42.28 22.7588 43.1267 23.4255 43.74C24.1055 44.34 24.9255 44.64 25.8855 44.64C26.6721 44.64 27.3255 44.46 27.8455 44.1C28.3788 43.7267 28.7521 43.2333 28.9655 42.62H30.9255C30.6321 43.6733 30.0455 44.5333 29.1655 45.2C28.2855 45.8533 27.1921 46.18 25.8855 46.18C24.8455 46.18 23.9121 45.9467 23.0855 45.48C22.2721 45.0133 21.6321 44.3533 21.1655 43.5C20.6988 42.6333 20.4655 41.6333 20.4655 40.5C20.4655 39.3667 20.6921 38.3733 21.1455 37.52C21.5988 36.6667 22.2321 36.0133 23.0455 35.56C23.8721 35.0933 24.8188 34.86 25.8855 34.86C26.9255 34.86 27.8455 35.0867 28.6455 35.54C29.4455 35.9933 30.0588 36.62 30.4855 37.42C30.9255 38.2067 31.1455 39.1 31.1455 40.1ZM29.2655 39.72C29.2655 39.0267 29.1121 38.4333 28.8055 37.94C28.4988 37.4333 28.0788 37.0533 27.5455 36.8C27.0255 36.5333 26.4455 36.4 25.8055 36.4C24.8855 36.4 24.0988 36.6933 23.4455 37.28C22.8055 37.8667 22.4388 38.68 22.3455 39.72H29.2655ZM35.3678 31.2V46H33.5478V31.2H35.3678ZM43.9097 34.84C44.7364 34.84 45.483 35.02 46.1497 35.38C46.8164 35.7267 47.3364 36.2533 47.7097 36.96C48.0964 37.6667 48.2897 38.5267 48.2897 39.54V46H46.4897V39.8C46.4897 38.7067 46.2164 37.8733 45.6697 37.3C45.123 36.7133 44.3764 36.42 43.4297 36.42C42.4697 36.42 41.703 36.72 41.1297 37.32C40.5697 37.92 40.2897 38.7933 40.2897 39.94V46H38.4697V31.2H40.2897V36.6C40.6497 36.04 41.143 35.6067 41.7697 35.3C42.4097 34.9933 43.123 34.84 43.9097 34.84ZM56.0427 46.18C55.016 46.18 54.0827 45.9467 53.2427 45.48C52.416 45.0133 51.7627 44.3533 51.2827 43.5C50.816 42.6333 50.5827 41.6333 50.5827 40.5C50.5827 39.38 50.8227 38.3933 51.3027 37.54C51.796 36.6733 52.4627 36.0133 53.3027 35.56C54.1427 35.0933 55.0827 34.86 56.1227 34.86C57.1627 34.86 58.1027 35.0933 58.9427 35.56C59.7827 36.0133 60.4427 36.6667 60.9227 37.52C61.416 38.3733 61.6627 39.3667 61.6627 40.5C61.6627 41.6333 61.4093 42.6333 60.9027 43.5C60.4093 44.3533 59.736 45.0133 58.8827 45.48C58.0293 45.9467 57.0827 46.18 56.0427 46.18ZM56.0427 44.58C56.696 44.58 57.3093 44.4267 57.8827 44.12C58.456 43.8133 58.916 43.3533 59.2627 42.74C59.6227 42.1267 59.8027 41.38 59.8027 40.5C59.8027 39.62 59.6293 38.8733 59.2827 38.26C58.936 37.6467 58.4827 37.1933 57.9227 36.9C57.3627 36.5933 56.756 36.44 56.1027 36.44C55.436 36.44 54.8227 36.5933 54.2627 36.9C53.716 37.1933 53.276 37.6467 52.9427 38.26C52.6093 38.8733 52.4427 39.62 52.4427 40.5C52.4427 41.3933 52.6027 42.1467 52.9227 42.76C53.256 43.3733 53.696 43.8333 54.2427 44.14C54.7893 44.4333 55.3893 44.58 56.0427 44.58ZM65.8756 36.82C66.1956 36.1933 66.649 35.7067 67.2356 35.36C67.8356 35.0133 68.5623 34.84 69.4156 34.84V36.72H68.9356C66.8956 36.72 65.8756 37.8267 65.8756 40.04V46H64.0556V35.04H65.8756V36.82ZM72.4566 33.26C72.1099 33.26 71.8166 33.14 71.5766 32.9C71.3366 32.66 71.2166 32.3667 71.2166 32.02C71.2166 31.6733 71.3366 31.38 71.5766 31.14C71.8166 30.9 72.1099 30.78 72.4566 30.78C72.7899 30.78 73.0699 30.9 73.2966 31.14C73.5366 31.38 73.6566 31.6733 73.6566 32.02C73.6566 32.3667 73.5366 32.66 73.2966 32.9C73.0699 33.14 72.7899 33.26 72.4566 33.26ZM73.3366 35.04V46H71.5166V35.04H73.3366ZM75.7584 40.48C75.7584 39.36 75.9851 38.38 76.4384 37.54C76.8918 36.6867 77.5118 36.0267 78.2984 35.56C79.0984 35.0933 79.9851 34.86 80.9584 34.86C81.9184 34.86 82.7518 35.0667 83.4584 35.48C84.1651 35.8933 84.6918 36.4133 85.0384 37.04V35.04H86.8784V46H85.0384V43.96C84.6784 44.6 84.1384 45.1333 83.4184 45.56C82.7118 45.9733 81.8851 46.18 80.9384 46.18C79.9651 46.18 79.0851 45.94 78.2984 45.46C77.5118 44.98 76.8918 44.3067 76.4384 43.44C75.9851 42.5733 75.7584 41.5867 75.7584 40.48ZM85.0384 40.5C85.0384 39.6733 84.8718 38.9533 84.5384 38.34C84.2051 37.7267 83.7518 37.26 83.1784 36.94C82.6184 36.6067 81.9984 36.44 81.3184 36.44C80.6384 36.44 80.0184 36.6 79.4584 36.92C78.8984 37.24 78.4518 37.7067 78.1184 38.32C77.7851 38.9333 77.6184 39.6533 77.6184 40.48C77.6184 41.32 77.7851 42.0533 78.1184 42.68C78.4518 43.2933 78.8984 43.7667 79.4584 44.1C80.0184 44.42 80.6384 44.58 81.3184 44.58C81.9984 44.58 82.6184 44.42 83.1784 44.1C83.7518 43.7667 84.2051 43.2933 84.5384 42.68C84.8718 42.0533 85.0384 41.3267 85.0384 40.5ZM94.6061 40.48C94.6061 39.36 94.8328 38.38 95.2861 37.54C95.7394 36.6867 96.3594 36.0267 97.1461 35.56C97.9461 35.0933 98.8394 34.86 99.8261 34.86C100.679 34.86 101.473 35.06 102.206 35.46C102.939 35.8467 103.499 36.36 103.886 37V31.2H105.726V46H103.886V43.94C103.526 44.5933 102.993 45.1333 102.286 45.56C101.579 45.9733 100.753 46.18 99.8061 46.18C98.8328 46.18 97.9461 45.94 97.1461 45.46C96.3594 44.98 95.7394 44.3067 95.2861 43.44C94.8328 42.5733 94.6061 41.5867 94.6061 40.48ZM103.886 40.5C103.886 39.6733 103.719 38.9533 103.386 38.34C103.053 37.7267 102.599 37.26 102.026 36.94C101.466 36.6067 100.846 36.44 100.166 36.44C99.4861 36.44 98.8661 36.6 98.3061 36.92C97.7461 37.24 97.2994 37.7067 96.9661 38.32C96.6328 38.9333 96.4661 39.6533 96.4661 40.48C96.4661 41.32 96.6328 42.0533 96.9661 42.68C97.2994 43.2933 97.7461 43.7667 98.3061 44.1C98.8661 44.42 99.4861 44.58 100.166 44.58C100.846 44.58 101.466 44.42 102.026 44.1C102.599 43.7667 103.053 43.2933 103.386 42.68C103.719 42.0533 103.886 41.3267 103.886 40.5ZM108.122 40.48C108.122 39.36 108.348 38.38 108.802 37.54C109.255 36.6867 109.875 36.0267 110.662 35.56C111.462 35.0933 112.348 34.86 113.322 34.86C114.282 34.86 115.115 35.0667 115.822 35.48C116.528 35.8933 117.055 36.4133 117.402 37.04V35.04H119.242V46H117.402V43.96C117.042 44.6 116.502 45.1333 115.782 45.56C115.075 45.9733 114.248 46.18 113.302 46.18C112.328 46.18 111.448 45.94 110.662 45.46C109.875 44.98 109.255 44.3067 108.802 43.44C108.348 42.5733 108.122 41.5867 108.122 40.48ZM117.402 40.5C117.402 39.6733 117.235 38.9533 116.902 38.34C116.568 37.7267 116.115 37.26 115.542 36.94C114.982 36.6067 114.362 36.44 113.682 36.44C113.002 36.44 112.382 36.6 111.822 36.92C111.262 37.24 110.815 37.7067 110.482 38.32C110.148 38.9333 109.982 39.6533 109.982 40.48C109.982 41.32 110.148 42.0533 110.482 42.68C110.815 43.2933 111.262 43.7667 111.822 44.1C112.382 44.42 113.002 44.58 113.682 44.58C114.362 44.58 114.982 44.42 115.542 44.1C116.115 43.7667 116.568 43.2933 116.902 42.68C117.235 42.0533 117.402 41.3267 117.402 40.5ZM128.589 33.26C128.243 33.26 127.949 33.14 127.709 32.9C127.469 32.66 127.349 32.3667 127.349 32.02C127.349 31.6733 127.469 31.38 127.709 31.14C127.949 30.9 128.243 30.78 128.589 30.78C128.923 30.78 129.203 30.9 129.429 31.14C129.669 31.38 129.789 31.6733 129.789 32.02C129.789 32.3667 129.669 32.66 129.429 32.9C129.203 33.14 128.923 33.26 128.589 33.26ZM129.469 35.04V46H127.649V35.04H129.469ZM137.911 34.84C139.245 34.84 140.325 35.2467 141.151 36.06C141.978 36.86 142.391 38.02 142.391 39.54V46H140.591V39.8C140.591 38.7067 140.318 37.8733 139.771 37.3C139.225 36.7133 138.478 36.42 137.531 36.42C136.571 36.42 135.805 36.72 135.231 37.32C134.671 37.92 134.391 38.7933 134.391 39.94V46H132.571V35.04H134.391V36.6C134.751 36.04 135.238 35.6067 135.851 35.3C136.478 34.9933 137.165 34.84 137.911 34.84ZM147.584 36.54V43C147.584 43.5333 147.698 43.9133 147.924 44.14C148.151 44.3533 148.544 44.46 149.104 44.46H150.444V46H148.804C147.791 46 147.031 45.7667 146.524 45.3C146.018 44.8333 145.764 44.0667 145.764 43V36.54H144.344V35.04H145.764V32.28H147.584V35.04H150.444V36.54H147.584ZM162.649 40.1C162.649 40.4467 162.629 40.8133 162.589 41.2H153.829C153.896 42.28 154.263 43.1267 154.929 43.74C155.609 44.34 156.429 44.64 157.389 44.64C158.176 44.64 158.829 44.46 159.349 44.1C159.883 43.7267 160.256 43.2333 160.469 42.62H162.429C162.136 43.6733 161.549 44.5333 160.669 45.2C159.789 45.8533 158.696 46.18 157.389 46.18C156.349 46.18 155.416 45.9467 154.589 45.48C153.776 45.0133 153.136 44.3533 152.669 43.5C152.203 42.6333 151.969 41.6333 151.969 40.5C151.969 39.3667 152.196 38.3733 152.649 37.52C153.103 36.6667 153.736 36.0133 154.549 35.56C155.376 35.0933 156.323 34.86 157.389 34.86C158.429 34.86 159.349 35.0867 160.149 35.54C160.949 35.9933 161.563 36.62 161.989 37.42C162.429 38.2067 162.649 39.1 162.649 40.1ZM160.769 39.72C160.769 39.0267 160.616 38.4333 160.309 37.94C160.003 37.4333 159.583 37.0533 159.049 36.8C158.529 36.5333 157.949 36.4 157.309 36.4C156.389 36.4 155.603 36.6933 154.949 37.28C154.309 37.8667 153.943 38.68 153.849 39.72H160.769ZM166.872 36.82C167.192 36.1933 167.645 35.7067 168.232 35.36C168.832 35.0133 169.558 34.84 170.412 34.84V36.72H169.932C167.892 36.72 166.872 37.8267 166.872 40.04V46H165.052V35.04H166.872V36.82ZM171.833 40.48C171.833 39.36 172.059 38.38 172.513 37.54C172.966 36.6867 173.586 36.0267 174.373 35.56C175.173 35.0933 176.059 34.86 177.033 34.86C177.993 34.86 178.826 35.0667 179.533 35.48C180.239 35.8933 180.766 36.4133 181.113 37.04V35.04H182.953V46H181.113V43.96C180.753 44.6 180.213 45.1333 179.493 45.56C178.786 45.9733 177.959 46.18 177.013 46.18C176.039 46.18 175.159 45.94 174.373 45.46C173.586 44.98 172.966 44.3067 172.513 43.44C172.059 42.5733 171.833 41.5867 171.833 40.48ZM181.113 40.5C181.113 39.6733 180.946 38.9533 180.613 38.34C180.279 37.7267 179.826 37.26 179.253 36.94C178.693 36.6067 178.073 36.44 177.393 36.44C176.713 36.44 176.093 36.6 175.533 36.92C174.973 37.24 174.526 37.7067 174.193 38.32C173.859 38.9333 173.693 39.6533 173.693 40.48C173.693 41.32 173.859 42.0533 174.193 42.68C174.526 43.2933 174.973 43.7667 175.533 44.1C176.093 44.42 176.713 44.58 177.393 44.58C178.073 44.58 178.693 44.42 179.253 44.1C179.826 43.7667 180.279 43.2933 180.613 42.68C180.946 42.0533 181.113 41.3267 181.113 40.5ZM190.688 44.64C191.488 44.64 192.155 44.4533 192.688 44.08C193.222 43.7067 193.588 43.1733 193.788 42.48H195.748C195.482 43.52 194.955 44.3733 194.168 45.04C193.395 45.6933 192.422 46.0667 191.248 46.16V47.16C192.035 47.1467 192.662 47.3133 193.128 47.66C193.595 48.0067 193.828 48.5 193.828 49.14C193.828 49.7667 193.602 50.2667 193.148 50.64C192.695 51.0133 192.108 51.2 191.388 51.2H189.088V50.02H191.028C191.468 50.02 191.788 49.9533 191.988 49.82C192.202 49.6867 192.308 49.46 192.308 49.14C192.308 48.8333 192.202 48.6133 191.988 48.48C191.788 48.3467 191.468 48.28 191.028 48.28H190.028V46.14C189.108 46.0467 188.295 45.76 187.588 45.28C186.882 44.7867 186.328 44.1333 185.928 43.32C185.542 42.4933 185.348 41.5533 185.348 40.5C185.348 39.3667 185.575 38.38 186.028 37.54C186.482 36.6867 187.108 36.0267 187.908 35.56C188.722 35.0933 189.648 34.86 190.688 34.86C192.035 34.86 193.142 35.1867 194.008 35.84C194.888 36.4933 195.468 37.4 195.748 38.56H193.788C193.602 37.8933 193.235 37.3667 192.688 36.98C192.155 36.5933 191.488 36.4 190.688 36.4C189.648 36.4 188.808 36.76 188.168 37.48C187.528 38.1867 187.208 39.1933 187.208 40.5C187.208 41.82 187.528 42.84 188.168 43.56C188.808 44.28 189.648 44.64 190.688 44.64ZM197.497 40.48C197.497 39.36 197.723 38.38 198.177 37.54C198.63 36.6867 199.25 36.0267 200.037 35.56C200.837 35.0933 201.723 34.86 202.697 34.86C203.657 34.86 204.49 35.0667 205.197 35.48C205.903 35.8933 206.43 36.4133 206.777 37.04V35.04H208.617V46H206.777V43.96C206.417 44.6 205.877 45.1333 205.157 45.56C204.45 45.9733 203.623 46.18 202.677 46.18C201.703 46.18 200.823 45.94 200.037 45.46C199.25 44.98 198.63 44.3067 198.177 43.44C197.723 42.5733 197.497 41.5867 197.497 40.48ZM206.777 40.5C206.777 39.6733 206.61 38.9533 206.277 38.34C205.943 37.7267 205.49 37.26 204.917 36.94C204.357 36.6067 203.737 36.44 203.057 36.44C202.377 36.44 201.757 36.6 201.197 36.92C200.637 37.24 200.19 37.7067 199.857 38.32C199.523 38.9333 199.357 39.6533 199.357 40.48C199.357 41.32 199.523 42.0533 199.857 42.68C200.19 43.2933 200.637 43.7667 201.197 44.1C201.757 44.42 202.377 44.58 203.057 44.58C203.737 44.58 204.357 44.42 204.917 44.1C205.49 43.7667 205.943 43.2933 206.277 42.68C206.61 42.0533 206.777 41.3267 206.777 40.5ZM200.477 33.86C200.57 33.18 200.79 32.66 201.137 32.3C201.497 31.94 201.943 31.76 202.477 31.76C202.73 31.76 202.943 31.8067 203.117 31.9C203.303 31.98 203.523 32.1 203.777 32.26C203.963 32.3933 204.13 32.5 204.277 32.58C204.423 32.6467 204.583 32.68 204.757 32.68C204.983 32.68 205.177 32.6067 205.337 32.46C205.497 32.3133 205.597 32.1 205.637 31.82H206.677C206.597 32.4867 206.377 33 206.017 33.36C205.657 33.72 205.21 33.9 204.677 33.9C204.423 33.9 204.197 33.86 203.997 33.78C203.81 33.6867 203.597 33.5533 203.357 33.38C203.143 33.2467 202.97 33.1467 202.837 33.08C202.717 33.0133 202.57 32.98 202.397 32.98C202.17 32.98 201.977 33.0533 201.817 33.2C201.67 33.3467 201.577 33.5667 201.537 33.86H200.477ZM216.472 46.18C215.446 46.18 214.512 45.9467 213.672 45.48C212.846 45.0133 212.192 44.3533 211.712 43.5C211.246 42.6333 211.012 41.6333 211.012 40.5C211.012 39.38 211.252 38.3933 211.732 37.54C212.226 36.6733 212.892 36.0133 213.732 35.56C214.572 35.0933 215.512 34.86 216.552 34.86C217.592 34.86 218.532 35.0933 219.372 35.56C220.212 36.0133 220.872 36.6667 221.352 37.52C221.846 38.3733 222.092 39.3667 222.092 40.5C222.092 41.6333 221.839 42.6333 221.332 43.5C220.839 44.3533 220.166 45.0133 219.312 45.48C218.459 45.9467 217.512 46.18 216.472 46.18ZM216.472 44.58C217.126 44.58 217.739 44.4267 218.312 44.12C218.886 43.8133 219.346 43.3533 219.692 42.74C220.052 42.1267 220.232 41.38 220.232 40.5C220.232 39.62 220.059 38.8733 219.712 38.26C219.366 37.6467 218.912 37.1933 218.352 36.9C217.792 36.5933 217.186 36.44 216.532 36.44C215.866 36.44 215.252 36.5933 214.692 36.9C214.146 37.1933 213.706 37.6467 213.372 38.26C213.039 38.8733 212.872 39.62 212.872 40.5C212.872 41.3933 213.032 42.1467 213.352 42.76C213.686 43.3733 214.126 43.8333 214.672 44.14C215.219 44.4333 215.819 44.58 216.472 44.58ZM225.065 46.12C224.719 46.12 224.425 46 224.185 45.76C223.945 45.52 223.825 45.2267 223.825 44.88C223.825 44.5333 223.945 44.24 224.185 44C224.425 43.76 224.719 43.64 225.065 43.64C225.399 43.64 225.679 43.76 225.905 44C226.145 44.24 226.265 44.5333 226.265 44.88C226.265 45.2267 226.145 45.52 225.905 45.76C225.679 46 225.399 46.12 225.065 46.12Z" fill="white"/>
</svg>
