<svg width="371" height="22" viewBox="0 0 371 22" fill="none" xmlns="http://www.w3.org/2000/svg">
<path d="M7.37609 16L4.05609 10.3H1.85609V16H0.0360939V2.06H4.53609C5.58943 2.06 6.47609 2.24 7.19609 2.6C7.92943 2.96 8.47609 3.44667 8.83609 4.06C9.19609 4.67333 9.37609 5.37333 9.37609 6.16C9.37609 7.12 9.09609 7.96667 8.53609 8.7C7.98943 9.43333 7.16276 9.92 6.05609 10.16L9.55609 16H7.37609ZM1.85609 8.84H4.53609C5.52276 8.84 6.26276 8.6 6.75609 8.12C7.24943 7.62667 7.49609 6.97333 7.49609 6.16C7.49609 5.33333 7.24943 4.69333 6.75609 4.24C6.27609 3.78667 5.53609 3.56 4.53609 3.56H1.85609V8.84ZM13.1441 3.26C12.7974 3.26 12.5041 3.14 12.2641 2.9C12.0241 2.66 11.9041 2.36667 11.9041 2.02C11.9041 1.67333 12.0241 1.38 12.2641 1.14C12.5041 0.899999 12.7974 0.779999 13.1441 0.779999C13.4774 0.779999 13.7574 0.899999 13.9841 1.14C14.2241 1.38 14.3441 1.67333 14.3441 2.02C14.3441 2.36667 14.2241 2.66 13.9841 2.9C13.7574 3.14 13.4774 3.26 13.1441 3.26ZM14.0241 5.04V16H12.2041V5.04H14.0241ZM21.9059 16.18C20.8793 16.18 19.9459 15.9467 19.1059 15.48C18.2793 15.0133 17.6259 14.3533 17.1459 13.5C16.6793 12.6333 16.4459 11.6333 16.4459 10.5C16.4459 9.38 16.6859 8.39333 17.1659 7.54C17.6593 6.67333 18.3259 6.01333 19.1659 5.56C20.0059 5.09333 20.9459 4.86 21.9859 4.86C23.0259 4.86 23.9659 5.09333 24.8059 5.56C25.6459 6.01333 26.3059 6.66667 26.7859 7.52C27.2793 8.37333 27.5259 9.36667 27.5259 10.5C27.5259 11.6333 27.2726 12.6333 26.7659 13.5C26.2726 14.3533 25.5993 15.0133 24.7459 15.48C23.8926 15.9467 22.9459 16.18 21.9059 16.18ZM21.9059 14.58C22.5593 14.58 23.1726 14.4267 23.7459 14.12C24.3193 13.8133 24.7793 13.3533 25.1259 12.74C25.4859 12.1267 25.6659 11.38 25.6659 10.5C25.6659 9.62 25.4926 8.87333 25.1459 8.26C24.7993 7.64667 24.3459 7.19333 23.7859 6.9C23.2259 6.59333 22.6193 6.44 21.9659 6.44C21.2993 6.44 20.6859 6.59333 20.1259 6.9C19.5793 7.19333 19.1393 7.64667 18.8059 8.26C18.4726 8.87333 18.3059 9.62 18.3059 10.5C18.3059 11.3933 18.4659 12.1467 18.7859 12.76C19.1193 13.3733 19.5593 13.8333 20.1059 14.14C20.6526 14.4333 21.2526 14.58 21.9059 14.58ZM45.8109 6.1C45.4243 5.28667 44.8643 4.66 44.1309 4.22C43.3976 3.76667 42.5443 3.54 41.5709 3.54C40.5976 3.54 39.7176 3.76667 38.9309 4.22C38.1576 4.66 37.5443 5.3 37.0909 6.14C36.6509 6.96667 36.4309 7.92667 36.4309 9.02C36.4309 10.1133 36.6509 11.0733 37.0909 11.9C37.5443 12.7267 38.1576 13.3667 38.9309 13.82C39.7176 14.26 40.5976 14.48 41.5709 14.48C42.9309 14.48 44.0509 14.0733 44.9309 13.26C45.8109 12.4467 46.3243 11.3467 46.4709 9.96H40.9109V8.48H48.4109V9.88C48.3043 11.0267 47.9443 12.08 47.3309 13.04C46.7176 13.9867 45.9109 14.74 44.9109 15.3C43.9109 15.8467 42.7976 16.12 41.5709 16.12C40.2776 16.12 39.0976 15.82 38.0309 15.22C36.9643 14.6067 36.1176 13.76 35.4909 12.68C34.8776 11.6 34.5709 10.38 34.5709 9.02C34.5709 7.66 34.8776 6.44 35.4909 5.36C36.1176 4.26667 36.9643 3.42 38.0309 2.82C39.0976 2.20667 40.2776 1.9 41.5709 1.9C43.0509 1.9 44.3576 2.26667 45.4909 3C46.6376 3.73333 47.4709 4.76667 47.9909 6.1H45.8109ZM52.6373 6.82C52.9573 6.19333 53.4107 5.70667 53.9973 5.36C54.5973 5.01333 55.324 4.84 56.1773 4.84V6.72H55.6973C53.6573 6.72 52.6373 7.82667 52.6373 10.04V16H50.8173V5.04H52.6373V6.82ZM57.5983 10.48C57.5983 9.36 57.8249 8.38 58.2783 7.54C58.7316 6.68667 59.3516 6.02667 60.1383 5.56C60.9383 5.09333 61.8249 4.86 62.7983 4.86C63.7583 4.86 64.5916 5.06667 65.2983 5.48C66.0049 5.89333 66.5316 6.41333 66.8783 7.04V5.04H68.7183V16H66.8783V13.96C66.5183 14.6 65.9783 15.1333 65.2583 15.56C64.5516 15.9733 63.7249 16.18 62.7783 16.18C61.8049 16.18 60.9249 15.94 60.1383 15.46C59.3516 14.98 58.7316 14.3067 58.2783 13.44C57.8249 12.5733 57.5983 11.5867 57.5983 10.48ZM66.8783 10.5C66.8783 9.67333 66.7116 8.95333 66.3783 8.34C66.0449 7.72667 65.5916 7.26 65.0183 6.94C64.4583 6.60667 63.8383 6.44 63.1583 6.44C62.4783 6.44 61.8583 6.6 61.2983 6.92C60.7383 7.24 60.2916 7.70667 59.9583 8.32C59.6249 8.93333 59.4583 9.65333 59.4583 10.48C59.4583 11.32 59.6249 12.0533 59.9583 12.68C60.2916 13.2933 60.7383 13.7667 61.2983 14.1C61.8583 14.42 62.4783 14.58 63.1583 14.58C63.8383 14.58 64.4583 14.42 65.0183 14.1C65.5916 13.7667 66.0449 13.2933 66.3783 12.68C66.7116 12.0533 66.8783 11.3267 66.8783 10.5ZM77.1339 4.84C78.4672 4.84 79.5472 5.24667 80.3739 6.06C81.2006 6.86 81.6139 8.02 81.6139 9.54V16H79.8139V9.8C79.8139 8.70667 79.5406 7.87333 78.9939 7.3C78.4472 6.71333 77.7006 6.42 76.7539 6.42C75.7939 6.42 75.0272 6.72 74.4539 7.32C73.8939 7.92 73.6139 8.79333 73.6139 9.94V16H71.7939V5.04H73.6139V6.6C73.9739 6.04 74.4606 5.60667 75.0739 5.3C75.7006 4.99333 76.3872 4.84 77.1339 4.84ZM83.9069 10.48C83.9069 9.36 84.1335 8.38 84.5869 7.54C85.0402 6.68667 85.6602 6.02667 86.4469 5.56C87.2469 5.09333 88.1402 4.86 89.1269 4.86C89.9802 4.86 90.7735 5.06 91.5069 5.46C92.2402 5.84667 92.8002 6.36 93.1869 7V1.2H95.0269V16H93.1869V13.94C92.8269 14.5933 92.2935 15.1333 91.5869 15.56C90.8802 15.9733 90.0535 16.18 89.1069 16.18C88.1335 16.18 87.2469 15.94 86.4469 15.46C85.6602 14.98 85.0402 14.3067 84.5869 13.44C84.1335 12.5733 83.9069 11.5867 83.9069 10.48ZM93.1869 10.5C93.1869 9.67333 93.0202 8.95333 92.6869 8.34C92.3535 7.72667 91.9002 7.26 91.3269 6.94C90.7669 6.60667 90.1469 6.44 89.4669 6.44C88.7869 6.44 88.1669 6.6 87.6069 6.92C87.0469 7.24 86.6002 7.70667 86.2669 8.32C85.9335 8.93333 85.7669 9.65333 85.7669 10.48C85.7669 11.32 85.9335 12.0533 86.2669 12.68C86.6002 13.2933 87.0469 13.7667 87.6069 14.1C88.1669 14.42 88.7869 14.58 89.4669 14.58C90.1469 14.58 90.7669 14.42 91.3269 14.1C91.9002 13.7667 92.3535 13.2933 92.6869 12.68C93.0202 12.0533 93.1869 11.3267 93.1869 10.5ZM108.103 10.1C108.103 10.4467 108.083 10.8133 108.043 11.2H99.2825C99.3492 12.28 99.7158 13.1267 100.383 13.74C101.063 14.34 101.883 14.64 102.843 14.64C103.629 14.64 104.283 14.46 104.803 14.1C105.336 13.7267 105.709 13.2333 105.923 12.62H107.883C107.589 13.6733 107.003 14.5333 106.123 15.2C105.243 15.8533 104.149 16.18 102.843 16.18C101.803 16.18 100.869 15.9467 100.043 15.48C99.2292 15.0133 98.5892 14.3533 98.1225 13.5C97.6558 12.6333 97.4225 11.6333 97.4225 10.5C97.4225 9.36667 97.6492 8.37333 98.1025 7.52C98.5558 6.66667 99.1892 6.01333 100.003 5.56C100.829 5.09333 101.776 4.86 102.843 4.86C103.883 4.86 104.803 5.08667 105.603 5.54C106.403 5.99333 107.016 6.62 107.443 7.42C107.883 8.20667 108.103 9.1 108.103 10.1ZM106.223 9.72C106.223 9.02667 106.069 8.43333 105.763 7.94C105.456 7.43333 105.036 7.05333 104.503 6.8C103.983 6.53333 103.403 6.4 102.763 6.4C101.843 6.4 101.056 6.69333 100.403 7.28C99.7625 7.86667 99.3958 8.68 99.3025 9.72H106.223ZM115.157 10.48C115.157 9.36 115.384 8.38 115.837 7.54C116.29 6.68667 116.91 6.02667 117.697 5.56C118.497 5.09333 119.39 4.86 120.377 4.86C121.23 4.86 122.024 5.06 122.757 5.46C123.49 5.84667 124.05 6.36 124.437 7V1.2H126.277V16H124.437V13.94C124.077 14.5933 123.544 15.1333 122.837 15.56C122.13 15.9733 121.304 16.18 120.357 16.18C119.384 16.18 118.497 15.94 117.697 15.46C116.91 14.98 116.29 14.3067 115.837 13.44C115.384 12.5733 115.157 11.5867 115.157 10.48ZM124.437 10.5C124.437 9.67333 124.27 8.95333 123.937 8.34C123.604 7.72667 123.15 7.26 122.577 6.94C122.017 6.60667 121.397 6.44 120.717 6.44C120.037 6.44 119.417 6.6 118.857 6.92C118.297 7.24 117.85 7.70667 117.517 8.32C117.184 8.93333 117.017 9.65333 117.017 10.48C117.017 11.32 117.184 12.0533 117.517 12.68C117.85 13.2933 118.297 13.7667 118.857 14.1C119.417 14.42 120.037 14.58 120.717 14.58C121.397 14.58 122.017 14.42 122.577 14.1C123.15 13.7667 123.604 13.2933 123.937 12.68C124.27 12.0533 124.437 11.3267 124.437 10.5ZM134.133 16.18C133.106 16.18 132.173 15.9467 131.333 15.48C130.506 15.0133 129.853 14.3533 129.373 13.5C128.906 12.6333 128.673 11.6333 128.673 10.5C128.673 9.38 128.913 8.39333 129.393 7.54C129.886 6.67333 130.553 6.01333 131.393 5.56C132.233 5.09333 133.173 4.86 134.213 4.86C135.253 4.86 136.193 5.09333 137.033 5.56C137.873 6.01333 138.533 6.66667 139.013 7.52C139.506 8.37333 139.753 9.36667 139.753 10.5C139.753 11.6333 139.499 12.6333 138.993 13.5C138.499 14.3533 137.826 15.0133 136.973 15.48C136.119 15.9467 135.173 16.18 134.133 16.18ZM134.133 14.58C134.786 14.58 135.399 14.4267 135.973 14.12C136.546 13.8133 137.006 13.3533 137.353 12.74C137.713 12.1267 137.893 11.38 137.893 10.5C137.893 9.62 137.719 8.87333 137.373 8.26C137.026 7.64667 136.573 7.19333 136.013 6.9C135.453 6.59333 134.846 6.44 134.193 6.44C133.526 6.44 132.913 6.59333 132.353 6.9C131.806 7.19333 131.366 7.64667 131.033 8.26C130.699 8.87333 130.533 9.62 130.533 10.5C130.533 11.3933 130.693 12.1467 131.013 12.76C131.346 13.3733 131.786 13.8333 132.333 14.14C132.879 14.4333 133.479 14.58 134.133 14.58ZM158.438 16H156.618L149.298 4.9V16H147.478V2.04H149.298L156.618 13.12V2.04H158.438V16ZM166.32 16.18C165.293 16.18 164.36 15.9467 163.52 15.48C162.693 15.0133 162.04 14.3533 161.56 13.5C161.093 12.6333 160.86 11.6333 160.86 10.5C160.86 9.38 161.1 8.39333 161.58 7.54C162.073 6.67333 162.74 6.01333 163.58 5.56C164.42 5.09333 165.36 4.86 166.4 4.86C167.44 4.86 168.38 5.09333 169.22 5.56C170.06 6.01333 170.72 6.66667 171.2 7.52C171.693 8.37333 171.94 9.36667 171.94 10.5C171.94 11.6333 171.687 12.6333 171.18 13.5C170.687 14.3533 170.013 15.0133 169.16 15.48C168.307 15.9467 167.36 16.18 166.32 16.18ZM166.32 14.58C166.973 14.58 167.587 14.4267 168.16 14.12C168.733 13.8133 169.193 13.3533 169.54 12.74C169.9 12.1267 170.08 11.38 170.08 10.5C170.08 9.62 169.907 8.87333 169.56 8.26C169.213 7.64667 168.76 7.19333 168.2 6.9C167.64 6.59333 167.033 6.44 166.38 6.44C165.713 6.44 165.1 6.59333 164.54 6.9C163.993 7.19333 163.553 7.64667 163.22 8.26C162.887 8.87333 162.72 9.62 162.72 10.5C162.72 11.3933 162.88 12.1467 163.2 12.76C163.533 13.3733 163.973 13.8333 164.52 14.14C165.067 14.4333 165.667 14.58 166.32 14.58ZM176.153 6.82C176.473 6.19333 176.926 5.70667 177.513 5.36C178.113 5.01333 178.84 4.84 179.693 4.84V6.72H179.213C177.173 6.72 176.153 7.82667 176.153 10.04V16H174.333V5.04H176.153V6.82ZM184.014 6.54V13C184.014 13.5333 184.127 13.9133 184.354 14.14C184.581 14.3533 184.974 14.46 185.534 14.46H186.874V16H185.234C184.221 16 183.461 15.7667 182.954 15.3C182.447 14.8333 182.194 14.0667 182.194 13V6.54H180.774V5.04H182.194V2.28H184.014V5.04H186.874V6.54H184.014ZM199.079 10.1C199.079 10.4467 199.059 10.8133 199.019 11.2H190.259C190.326 12.28 190.692 13.1267 191.359 13.74C192.039 14.34 192.859 14.64 193.819 14.64C194.606 14.64 195.259 14.46 195.779 14.1C196.312 13.7267 196.686 13.2333 196.899 12.62H198.859C198.566 13.6733 197.979 14.5333 197.099 15.2C196.219 15.8533 195.126 16.18 193.819 16.18C192.779 16.18 191.846 15.9467 191.019 15.48C190.206 15.0133 189.566 14.3533 189.099 13.5C188.632 12.6333 188.399 11.6333 188.399 10.5C188.399 9.36667 188.626 8.37333 189.079 7.52C189.532 6.66667 190.166 6.01333 190.979 5.56C191.806 5.09333 192.752 4.86 193.819 4.86C194.859 4.86 195.779 5.08667 196.579 5.54C197.379 5.99333 197.992 6.62 198.419 7.42C198.859 8.20667 199.079 9.1 199.079 10.1ZM197.199 9.72C197.199 9.02667 197.046 8.43333 196.739 7.94C196.432 7.43333 196.012 7.05333 195.479 6.8C194.959 6.53333 194.379 6.4 193.739 6.4C192.819 6.4 192.032 6.69333 191.379 7.28C190.739 7.86667 190.372 8.68 190.279 9.72H197.199ZM214.413 7.9V9.44H206.433V7.9H214.413ZM222.481 9.02C222.481 7.66 222.788 6.44 223.401 5.36C224.014 4.26667 224.848 3.41333 225.901 2.8C226.968 2.18667 228.148 1.88 229.441 1.88C230.961 1.88 232.288 2.24667 233.421 2.98C234.554 3.71333 235.381 4.75333 235.901 6.1H233.721C233.334 5.26 232.774 4.61333 232.041 4.16C231.321 3.70667 230.454 3.48 229.441 3.48C228.468 3.48 227.594 3.70667 226.821 4.16C226.048 4.61333 225.441 5.26 225.001 6.1C224.561 6.92667 224.341 7.9 224.341 9.02C224.341 10.1267 224.561 11.1 225.001 11.94C225.441 12.7667 226.048 13.4067 226.821 13.86C227.594 14.3133 228.468 14.54 229.441 14.54C230.454 14.54 231.321 14.32 232.041 13.88C232.774 13.4267 233.334 12.78 233.721 11.94H235.901C235.381 13.2733 234.554 14.3067 233.421 15.04C232.288 15.76 230.961 16.12 229.441 16.12C228.148 16.12 226.968 15.82 225.901 15.22C224.848 14.6067 224.014 13.76 223.401 12.68C222.788 11.6 222.481 10.38 222.481 9.02ZM237.93 10.48C237.93 9.36 238.157 8.38 238.61 7.54C239.064 6.68667 239.684 6.02667 240.47 5.56C241.27 5.09333 242.157 4.86 243.13 4.86C244.09 4.86 244.924 5.06667 245.63 5.48C246.337 5.89333 246.864 6.41333 247.21 7.04V5.04H249.05V16H247.21V13.96C246.85 14.6 246.31 15.1333 245.59 15.56C244.884 15.9733 244.057 16.18 243.11 16.18C242.137 16.18 241.257 15.94 240.47 15.46C239.684 14.98 239.064 14.3067 238.61 13.44C238.157 12.5733 237.93 11.5867 237.93 10.48ZM247.21 10.5C247.21 9.67333 247.044 8.95333 246.71 8.34C246.377 7.72667 245.924 7.26 245.35 6.94C244.79 6.60667 244.17 6.44 243.49 6.44C242.81 6.44 242.19 6.6 241.63 6.92C241.07 7.24 240.624 7.70667 240.29 8.32C239.957 8.93333 239.79 9.65333 239.79 10.48C239.79 11.32 239.957 12.0533 240.29 12.68C240.624 13.2933 241.07 13.7667 241.63 14.1C242.19 14.42 242.81 14.58 243.49 14.58C244.17 14.58 244.79 14.42 245.35 14.1C245.924 13.7667 246.377 13.2933 246.71 12.68C247.044 12.0533 247.21 11.3267 247.21 10.5ZM265.306 4.84C266.159 4.84 266.919 5.02 267.586 5.38C268.253 5.72667 268.779 6.25333 269.166 6.96C269.553 7.66667 269.746 8.52667 269.746 9.54V16H267.946V9.8C267.946 8.70667 267.673 7.87333 267.126 7.3C266.593 6.71333 265.866 6.42 264.946 6.42C263.999 6.42 263.246 6.72667 262.686 7.34C262.126 7.94 261.846 8.81333 261.846 9.96V16H260.046V9.8C260.046 8.70667 259.773 7.87333 259.226 7.3C258.693 6.71333 257.966 6.42 257.046 6.42C256.099 6.42 255.346 6.72667 254.786 7.34C254.226 7.94 253.946 8.81333 253.946 9.96V16H252.126V5.04H253.946V6.62C254.306 6.04667 254.786 5.60667 255.386 5.3C255.999 4.99333 256.673 4.84 257.406 4.84C258.326 4.84 259.139 5.04667 259.846 5.46C260.553 5.87333 261.079 6.48 261.426 7.28C261.733 6.50667 262.239 5.90667 262.946 5.48C263.653 5.05333 264.439 4.84 265.306 4.84ZM274.551 7.06C274.911 6.43333 275.445 5.91333 276.151 5.5C276.871 5.07333 277.705 4.86 278.651 4.86C279.625 4.86 280.505 5.09333 281.291 5.56C282.091 6.02667 282.718 6.68667 283.171 7.54C283.625 8.38 283.851 9.36 283.851 10.48C283.851 11.5867 283.625 12.5733 283.171 13.44C282.718 14.3067 282.091 14.98 281.291 15.46C280.505 15.94 279.625 16.18 278.651 16.18C277.718 16.18 276.891 15.9733 276.171 15.56C275.465 15.1333 274.925 14.6067 274.551 13.98V21.2H272.731V5.04H274.551V7.06ZM281.991 10.48C281.991 9.65333 281.825 8.93333 281.491 8.32C281.158 7.70667 280.705 7.24 280.131 6.92C279.571 6.6 278.951 6.44 278.271 6.44C277.605 6.44 276.985 6.60667 276.411 6.94C275.851 7.26 275.398 7.73333 275.051 8.36C274.718 8.97333 274.551 9.68667 274.551 10.5C274.551 11.3267 274.718 12.0533 275.051 12.68C275.398 13.2933 275.851 13.7667 276.411 14.1C276.985 14.42 277.605 14.58 278.271 14.58C278.951 14.58 279.571 14.42 280.131 14.1C280.705 13.7667 281.158 13.2933 281.491 12.68C281.825 12.0533 281.991 11.32 281.991 10.48ZM295.967 5.04V16H294.147V14.38C293.8 14.94 293.314 15.38 292.687 15.7C292.074 16.0067 291.394 16.16 290.647 16.16C289.794 16.16 289.027 15.9867 288.347 15.64C287.667 15.28 287.127 14.7467 286.727 14.04C286.34 13.3333 286.147 12.4733 286.147 11.46V5.04H287.947V11.22C287.947 12.3 288.22 13.1333 288.767 13.72C289.314 14.2933 290.06 14.58 291.007 14.58C291.98 14.58 292.747 14.28 293.307 13.68C293.867 13.08 294.147 12.2067 294.147 11.06V5.04H295.967ZM302.92 16.18C302.08 16.18 301.327 16.04 300.66 15.76C299.993 15.4667 299.467 15.0667 299.08 14.56C298.693 14.04 298.48 13.4467 298.44 12.78H300.32C300.373 13.3267 300.627 13.7733 301.08 14.12C301.547 14.4667 302.153 14.64 302.9 14.64C303.593 14.64 304.14 14.4867 304.54 14.18C304.94 13.8733 305.14 13.4867 305.14 13.02C305.14 12.54 304.927 12.1867 304.5 11.96C304.073 11.72 303.413 11.4867 302.52 11.26C301.707 11.0467 301.04 10.8333 300.52 10.62C300.013 10.3933 299.573 10.0667 299.2 9.64C298.84 9.2 298.66 8.62667 298.66 7.92C298.66 7.36 298.827 6.84667 299.16 6.38C299.493 5.91333 299.967 5.54667 300.58 5.28C301.193 5 301.893 4.86 302.68 4.86C303.893 4.86 304.873 5.16667 305.62 5.78C306.367 6.39333 306.767 7.23333 306.82 8.3H305C304.96 7.72667 304.727 7.26667 304.3 6.92C303.887 6.57333 303.327 6.4 302.62 6.4C301.967 6.4 301.447 6.54 301.06 6.82C300.673 7.1 300.48 7.46667 300.48 7.92C300.48 8.28 300.593 8.58 300.82 8.82C301.06 9.04667 301.353 9.23333 301.7 9.38C302.06 9.51333 302.553 9.66667 303.18 9.84C303.967 10.0533 304.607 10.2667 305.1 10.48C305.593 10.68 306.013 10.9867 306.36 11.4C306.72 11.8133 306.907 12.3533 306.92 13.02C306.92 13.62 306.753 14.16 306.42 14.64C306.087 15.12 305.613 15.5 305 15.78C304.4 16.0467 303.707 16.18 302.92 16.18ZM323.061 12.9H316.981L315.861 16H313.941L318.981 2.14H321.081L326.101 16H324.181L323.061 12.9ZM322.541 11.42L320.021 4.38L317.501 11.42H322.541ZM330.118 7.06C330.478 6.43333 331.011 5.91333 331.718 5.5C332.438 5.07333 333.271 4.86 334.218 4.86C335.191 4.86 336.071 5.09333 336.858 5.56C337.658 6.02667 338.284 6.68667 338.738 7.54C339.191 8.38 339.418 9.36 339.418 10.48C339.418 11.5867 339.191 12.5733 338.738 13.44C338.284 14.3067 337.658 14.98 336.858 15.46C336.071 15.94 335.191 16.18 334.218 16.18C333.284 16.18 332.458 15.9733 331.738 15.56C331.031 15.1333 330.491 14.6067 330.118 13.98V21.2H328.298V5.04H330.118V7.06ZM337.558 10.48C337.558 9.65333 337.391 8.93333 337.058 8.32C336.724 7.70667 336.271 7.24 335.698 6.92C335.138 6.6 334.518 6.44 333.838 6.44C333.171 6.44 332.551 6.60667 331.978 6.94C331.418 7.26 330.964 7.73333 330.618 8.36C330.284 8.97333 330.118 9.68667 330.118 10.5C330.118 11.3267 330.284 12.0533 330.618 12.68C330.964 13.2933 331.418 13.7667 331.978 14.1C332.551 14.42 333.171 14.58 333.838 14.58C334.518 14.58 335.138 14.42 335.698 14.1C336.271 13.7667 336.724 13.2933 337.058 12.68C337.391 12.0533 337.558 11.32 337.558 10.48ZM346.593 16.18C345.567 16.18 344.633 15.9467 343.793 15.48C342.967 15.0133 342.313 14.3533 341.833 13.5C341.367 12.6333 341.133 11.6333 341.133 10.5C341.133 9.38 341.373 8.39333 341.853 7.54C342.347 6.67333 343.013 6.01333 343.853 5.56C344.693 5.09333 345.633 4.86 346.673 4.86C347.713 4.86 348.653 5.09333 349.493 5.56C350.333 6.01333 350.993 6.66667 351.473 7.52C351.967 8.37333 352.213 9.36667 352.213 10.5C352.213 11.6333 351.96 12.6333 351.453 13.5C350.96 14.3533 350.287 15.0133 349.433 15.48C348.58 15.9467 347.633 16.18 346.593 16.18ZM346.593 14.58C347.247 14.58 347.86 14.4267 348.433 14.12C349.007 13.8133 349.467 13.3533 349.813 12.74C350.173 12.1267 350.353 11.38 350.353 10.5C350.353 9.62 350.18 8.87333 349.833 8.26C349.487 7.64667 349.033 7.19333 348.473 6.9C347.913 6.59333 347.307 6.44 346.653 6.44C345.987 6.44 345.373 6.59333 344.813 6.9C344.267 7.19333 343.827 7.64667 343.493 8.26C343.16 8.87333 342.993 9.62 342.993 10.5C342.993 11.3933 343.153 12.1467 343.473 12.76C343.807 13.3733 344.247 13.8333 344.793 14.14C345.34 14.4333 345.94 14.58 346.593 14.58ZM353.926 10.48C353.926 9.36 354.153 8.38 354.606 7.54C355.06 6.68667 355.68 6.02667 356.466 5.56C357.266 5.09333 358.16 4.86 359.146 4.86C360 4.86 360.793 5.06 361.526 5.46C362.26 5.84667 362.82 6.36 363.206 7V1.2H365.046V16H363.206V13.94C362.846 14.5933 362.313 15.1333 361.606 15.56C360.9 15.9733 360.073 16.18 359.126 16.18C358.153 16.18 357.266 15.94 356.466 15.46C355.68 14.98 355.06 14.3067 354.606 13.44C354.153 12.5733 353.926 11.5867 353.926 10.48ZM363.206 10.5C363.206 9.67333 363.04 8.95333 362.706 8.34C362.373 7.72667 361.92 7.26 361.346 6.94C360.786 6.60667 360.166 6.44 359.486 6.44C358.806 6.44 358.186 6.6 357.626 6.92C357.066 7.24 356.62 7.70667 356.286 8.32C355.953 8.93333 355.786 9.65333 355.786 10.48C355.786 11.32 355.953 12.0533 356.286 12.68C356.62 13.2933 357.066 13.7667 357.626 14.1C358.186 14.42 358.806 14.58 359.486 14.58C360.166 14.58 360.786 14.42 361.346 14.1C361.92 13.7667 362.373 13.2933 362.706 12.68C363.04 12.0533 363.206 11.3267 363.206 10.5ZM369.062 3.26C368.715 3.26 368.422 3.14 368.182 2.9C367.942 2.66 367.822 2.36667 367.822 2.02C367.822 1.67333 367.942 1.38 368.182 1.14C368.422 0.899999 368.715 0.779999 369.062 0.779999C369.395 0.779999 369.675 0.899999 369.902 1.14C370.142 1.38 370.262 1.67333 370.262 2.02C370.262 2.36667 370.142 2.66 369.902 2.9C369.675 3.14 369.395 3.26 369.062 3.26ZM369.942 5.04V16H368.122V5.04H369.942Z" fill="white"/>
</svg>
